<?xml version="1.0" standalone="no"?>
<!DOCTYPE svg PUBLIC "-//W3C//DTD SVG 20010904//EN"
 "http://www.w3.org/TR/2001/REC-SVG-20010904/DTD/svg10.dtd">
<svg version="1.0" xmlns="http://www.w3.org/2000/svg"
 width="513.000000pt" height="513.000000pt" viewBox="0 0 513.000000 513.000000"
 preserveAspectRatio="xMidYMid meet">
<metadata>
Created by potrace 1.14, written by Peter Selinger 2001-2017
</metadata>
<g transform="translate(0.000000,513.000000) scale(0.100000,-0.100000)"
fill="#000000" stroke="none">
<path d="M2545 4937 c-11 -28 -20 -56 -21 -62 -1 -5 -18 -59 -39 -120 -20 -60
-38 -114 -39 -120 -10 -47 -91 -275 -97 -276 -5 -1 -12 -2 -16 -3 -9 -3 -110
-18 -138 -21 -74 -10 -293 -73 -405 -118 -119 -47 -321 -157 -405 -219 -151
-112 -270 -220 -395 -358 -83 -93 -216 -297 -286 -442 l-28 -58 -333 0 c-215
0 -333 -4 -333 -10 0 -5 6 -10 14 -10 8 0 16 -3 18 -7 2 -5 43 -37 93 -72 50
-36 162 -118 251 -182 l161 -118 -13 -68 c-45 -233 -39 -582 13 -803 8 -36 16
-69 17 -75 18 -79 74 -242 92 -272 8 -13 12 -23 9 -23 -12 0 151 -306 175
-330 3 -3 25 -34 49 -70 25 -35 56 -78 70 -94 77 -89 131 -146 179 -191 l53
-51 -16 -44 c-9 -25 -26 -76 -38 -115 -12 -38 -51 -159 -88 -267 -36 -109 -64
-200 -62 -202 5 -5 166 115 171 127 2 4 10 7 18 7 8 0 14 4 14 8 0 4 13 15 29
25 15 9 90 62 166 118 l137 101 37 -20 c181 -102 344 -163 576 -217 21 -5 123
-22 190 -32 61 -9 380 -9 465 0 253 26 498 101 731 224 l87 46 58 -44 c33 -25
69 -51 81 -59 12 -8 104 -76 204 -150 101 -74 187 -137 191 -138 5 -2 0 20
-11 50 -10 29 -52 154 -91 278 -40 124 -79 242 -87 264 l-14 38 103 107 c91
93 154 168 211 251 55 80 87 131 87 139 0 5 4 11 8 13 12 4 114 219 150 313
30 81 76 241 87 304 3 19 7 37 9 40 4 6 10 57 25 196 13 118 5 375 -14 485 -3
14 -7 41 -10 60 -3 19 -8 42 -11 51 -4 15 25 44 92 89 28 19 293 211 314 227
51 40 108 80 125 88 13 7 -95 12 -322 15 l-342 5 -51 98 c-46 91 -163 277
-192 309 -7 7 -26 31 -43 53 -40 55 -217 231 -290 290 -32 26 -65 54 -73 61
-7 8 -17 14 -21 14 -4 0 -20 11 -35 24 -32 27 -151 98 -250 150 -125 65 -353
148 -458 166 -4 1 -35 8 -68 16 -34 8 -82 16 -108 19 -89 10 -84 6 -113 91
-46 135 -171 518 -173 531 -5 28 -13 20 -31 -30z m-339 -1043 c-4 -10 -23 -67
-42 -128 -20 -61 -50 -154 -68 -206 -35 -107 -28 -102 -141 -87 -27 4 -71 9
-96 13 -27 3 -56 1 -67 -5 -20 -11 -215 -274 -234 -317 l-11 -24 -204 0 -203
0 27 43 c82 127 211 275 333 381 59 51 195 146 209 146 6 0 11 4 11 8 0 15
230 119 335 152 55 18 105 33 110 35 29 10 47 4 41 -11z m891 -31 c284 -96
566 -294 753 -528 54 -67 131 -185 126 -193 -7 -12 -396 -3 -396 10 0 15 -187
276 -223 312 -28 27 -33 28 -86 22 -31 -3 -72 -9 -91 -12 -19 -4 -53 -7 -75
-8 l-40 -1 -57 172 c-31 95 -64 196 -72 224 l-16 51 36 -7 c20 -3 83 -22 141
-42z m-2027 -1500 c32 -24 398 -289 429 -311 92 -66 92 -64 -21 -397 -16 -49
-31 -94 -32 -100 -3 -16 -108 -329 -113 -338 -10 -17 -129 141 -201 267 -66
115 -144 304 -168 407 -15 63 -25 117 -30 149 -2 19 -7 53 -10 75 -8 52 -12
258 -6 312 l4 42 61 -44 c34 -24 73 -52 87 -62z m3139 85 c0 -13 0 -79 0 -148
0 -133 -3 -183 -19 -270 -15 -83 -19 -100 -25 -120 -3 -10 -7 -27 -9 -37 -10
-48 -62 -187 -106 -280 -55 -117 -119 -219 -198 -317 l-55 -69 -27 84 c-210
645 -210 644 -203 682 5 31 14 44 52 69 25 18 48 34 51 37 3 3 28 22 55 41 28
19 55 38 60 43 14 11 328 239 355 257 12 8 32 23 44 32 27 22 26 22 25 -4z
m-1304 -1418 c154 -112 290 -211 303 -221 l22 -17 -68 -26 c-246 -94 -499
-128 -773 -104 -136 12 -377 75 -465 121 l-26 14 78 55 c44 31 194 139 334
241 l254 186 31 -23 c16 -12 156 -114 310 -226z"/>
</g>
</svg>
